<svg xmlns="http://www.w3.org/2000/svg" viewBox="0 0 24 24"><path d="M17.888 2c-.1.009-.227.157-.442.428-.398.502-.92.973-1.498 1.35-.808.526-1.244.684-3.976 1.433-1.42.39-2.072.6-2.766.897-2.053.877-3.567 2.468-4.228 4.443-.621 1.854-.514 4.206.271 5.98l.127.29.336-.647c1.27-2.446 3.085-4.416 5.371-5.834.434-.27.94-.592 1.39-.767-.364.33-1.15 1.161-1.681 1.747-2.761 3.323-4.108 4.797-5.637 9.635a.8.8 0 0 0 1.524.49c.363-1.131.726-2.139 1.093-3.042l.327.123c1.447.545 3.368.756 4.752.52 2.626-.45 4.935-2.576 5.937-5.466 1.006-2.9.811-6.844-.539-10.91-.152-.457-.234-.67-.354-.67z" style="fill:currentColor;fill-opacity:1;stroke-width:.188356"/></svg>