<svg xmlns="http://www.w3.org/2000/svg" viewBox="0 0 128 128"><rect width="22" height="12" x="53" y="13" fill="#90a4ae" rx="4.5"/><rect width="48" height="92" x="40" y="21" fill="#607d8b" rx="12"/><rect width="35" height="79" x="46.5" y="27.5" fill="#455a64" rx="8"/><rect width="35" height="63.5" x="46.5" y="43" fill="#4caf50" rx="8"/><g style="fill:#fff"><path d="M93.1 21.306c-.466.043-1.06.741-2.064 2.008-1.866 2.356-4.31 4.556-7.021 6.323-3.789 2.47-5.834 3.207-18.646 6.721-6.659 1.827-9.718 2.82-12.972 4.21-9.626 4.114-16.72 11.57-19.822 20.83-2.91 8.692-2.41 19.72 1.27 28.041l.6 1.354 1.575-3.034c5.959-11.47 14.458-20.705 25.179-27.353 1.18-.732 4.015-2.246 6.228-3.394-2.436 2.194-4.916 4.578-7.15 6.75a109 109 0 0 0-5.49 5.917v.005c-5.516 6.426-11.032 14.463-15.723 25.008-2.069 4.65-3.973 9.786-5.651 15.49a3.753 3.753 0 0 0 2.424 4.72 3.747 3.747 0 0 0 4.714-2.424c1.71-5.326 3.417-10.062 5.146-14.31l.75.334.764.288c6.786 2.558 15.79 3.538 22.279 2.43 12.313-2.106 23.144-12.065 27.841-25.612 4.716-13.602 3.802-32.1-2.529-51.163-.713-2.146-1.096-3.139-1.658-3.139z" style="fill:#fff;fill-opacity:1;stroke-width:.883168" transform="translate(40.932 50.735)scale(.35217)"/></g></svg>