<?xml version="1.0" encoding="UTF-8" standalone="no"?>
<svg
   viewBox="0 0 128 128"
   version="1.1"
   id="svg2"
   sodipodi:docname="perf-quiet.svg"
   inkscape:version="1.4.3 (0d15f75, 2025-12-25)"
   xmlns:inkscape="http://www.inkscape.org/namespaces/inkscape"
   xmlns:sodipodi="http://sodipodi.sourceforge.net/DTD/sodipodi-0.dtd"
   xmlns="http://www.w3.org/2000/svg"
   xmlns:svg="http://www.w3.org/2000/svg">
  <defs
     id="defs2" />
  <sodipodi:namedview
     id="namedview2"
     pagecolor="#ffffff"
     bordercolor="#000000"
     borderopacity="0.25"
     inkscape:showpageshadow="2"
     inkscape:pageopacity="0.0"
     inkscape:pagecheckerboard="0"
     inkscape:deskcolor="#d1d1d1"
     showguides="true"
     inkscape:zoom="7.3710938"
     inkscape:cx="34.119767"
     inkscape:cy="74.140964"
     inkscape:window-width="3759"
     inkscape:window-height="2126"
     inkscape:window-x="70"
     inkscape:window-y="-11"
     inkscape:window-maximized="1"
     inkscape:current-layer="svg2">
    <sodipodi:guide
       position="78.957075,105.17459"
       orientation="0,-1"
       id="guide2"
       inkscape:locked="false" />
    <sodipodi:guide
       position="60.438792,22.066035"
       orientation="0,-1"
       id="guide3"
       inkscape:locked="false" />
    <sodipodi:guide
       position="28.670775,59.624801"
       orientation="1,0"
       id="guide4"
       inkscape:locked="false" />
    <sodipodi:guide
       position="99.630179,68.239534"
       orientation="1,0"
       id="guide5"
       inkscape:locked="false" />
  </sodipodi:namedview>
  <g
     id="g3"
     transform="translate(-1.5022713,-4.1926141)">
    <path
       id="path3"
       style="fill:#8bc34a;fill-opacity:1;stroke-width:0.883168"
       d="m 93.146484,21.304688 c -0.471776,-2e-6 -1.072972,0.69994 -2.109375,2.007812 -1.86653,2.355527 -4.311146,4.557515 -7.021484,6.324219 -3.788715,2.469626 -5.836155,3.206469 -18.648437,6.720703 -6.658942,1.826468 -9.714746,2.818274 -12.96875,4.208984 -9.625594,4.113721 -16.718908,11.569351 -19.820313,20.830078 -2.910655,8.690908 -2.41287,19.720987 1.267578,28.042969 l 0.597656,1.351563 1.574219,-3.029297 c 5.958957,-11.469925 14.46071,-20.705284 25.181641,-27.353516 1.251,-0.775758 4.343485,-2.435998 6.603515,-3.601562 -2.5977,2.339296 -5.150789,4.642428 -7.527343,6.953125 C 53.03903,71.029285 45.321527,80.63052 39.066406,94.691406 41.54315,96.370789 43.892877,97.36204 46.445312,98.5 l 0.763672,0.289062 c 6.786019,2.557468 15.794581,3.540818 22.283204,2.431638 C 81.8052,99.115689 92.633082,89.152607 97.330078,75.605469 102.04584,62.004307 101.13199,43.507327 94.800781,24.445312 94.0879,22.298977 93.708989,21.304688 93.146484,21.304688 Z m 0.109375,0.677734 c 0.0011,0.01128 0.0029,0.01987 0.0039,0.03125 v 0.002 0.002 c 0.0029,0.03182 0.0014,0.07288 0.0039,0.105469 -0.0035,-0.04524 -0.0036,-0.09688 -0.0078,-0.140625 z m -0.01367,2.111328 c -0.02282,0.298488 -0.05328,0.610233 -0.08984,0.931641 -0.127629,1.122749 -0.407196,2.435505 -0.671875,3.720703 -0.101978,0.495063 -0.144186,0.934308 -0.257813,1.43164 0.508466,-2.171684 0.886977,-4.340908 1.019532,-6.083984 z M 76.953125,55.625 c -3.906056,4.31077 -7.859932,7.969781 -12.445313,12.576172 -1.765126,1.773214 -3.463791,3.648975 -5.109374,5.6875 1.644818,-2.037635 3.342912,-3.914904 5.107421,-5.6875 C 69.09124,63.594782 73.046723,59.93592 76.953125,55.625 Z" />
    <path
       style="baseline-shift:baseline;display:inline;overflow:visible;vector-effect:none;fill:#558b2f;stroke-linecap:round;enable-background:accumulate;stop-color:#000000"
       d="m 60.276864,63.7587 c -9.629764,9.67389 -20.112789,23.47757 -26.866708,46.42489 -0.633113,1.97182 0.452046,4.08356 2.423828,4.7168 1.971824,0.63311 4.083555,-0.45205 4.716797,-2.42383 C 47.957,89.40896 55.336242,77.4141 64.507004,68.20131 73.677765,58.98853 80.324082,53.56622 89.111906,39.136258 91.181726,35.821531 93.968299,24.611734 93.146239,21.3043 90.218587,39.658952 72.79399,51.58844 60.276864,63.7587 Z"
       id="path2-9-7-1"
       sodipodi:nodetypes="scccsccs" />
  </g>
</svg>
