<svg xmlns="http://www.w3.org/2000/svg" viewBox="0 0 128 128"><path d="M93.146 21.305c-.471 0-1.072.7-2.109 2.007-1.866 2.356-4.311 4.558-7.021 6.325-3.79 2.47-5.837 3.206-18.649 6.72-6.659 1.827-9.715 2.819-12.969 4.21-9.625 4.113-16.718 11.569-19.82 20.83-2.91 8.69-2.413 19.72 1.268 28.042l.597 1.352 1.575-3.03c5.959-11.47 14.46-20.705 25.181-27.353 1.251-.776 4.344-2.436 6.604-3.601-2.598 2.339-5.151 4.642-7.528 6.953-7.236 7.27-14.953 16.87-21.209 30.931 2.477 1.68 4.827 2.671 7.38 3.809l.763.29c6.786 2.557 15.795 3.54 22.283 2.43 12.313-2.104 23.141-12.067 27.838-25.615 4.716-13.6 3.802-32.098-2.53-51.16-.712-2.146-1.091-3.14-1.654-3.14m.11.677.004.032v.004c.003.031.001.073.004.105-.004-.045-.004-.097-.008-.14m-.014 2.112q-.035.448-.09.931c-.127 1.123-.407 2.436-.672 3.721-.102.495-.144.934-.257 1.432.508-2.172.887-4.341 1.02-6.084M76.953 55.625c-3.906 4.31-7.86 7.97-12.445 12.576h-.002c4.585-4.606 8.54-8.265 12.447-12.576" style="fill:#8bc34a;fill-opacity:1;stroke-width:.883168" transform="translate(-1.502 -4.193)"/><path d="M60.277 63.759c-9.63 9.674-20.113 23.477-26.867 46.425a3.75 3.75 0 0 0 7.14 2.293C47.958 89.409 55.337 77.414 64.508 68.2c9.17-9.212 15.817-14.635 24.605-29.065 2.07-3.314 4.856-14.524 4.034-17.832C90.22 39.66 72.794 51.588 60.276 63.76" style="baseline-shift:baseline;display:inline;overflow:visible;vector-effect:none;fill:#558b2f;stroke-linecap:round;stop-color:#000" transform="translate(-1.502 -4.193)"/></svg>