<svg xmlns="http://www.w3.org/2000/svg" viewBox="0 0 128 128"><path fill="#607d8b" d="M24 24c-5.54 0-10 4.46-10 10v48c0 5.54 4.46 10 10 10h32v10h16V92h32c5.54 0 10-4.46 10-10V34c0-5.54-4.46-10-10-10z"/><path fill="#455a64" d="M26 31h76c2.77 0 5 2.23 5 5v44c0 2.77-2.23 5-5 5H26c-2.77 0-5-2.23-5-5V36c0-2.77 2.23-5 5-5"/><path fill="#90a4ae" d="M44 102h40c2.216 0 4 1.784 4 4s-1.784 4-4 4H44c-2.216 0-4-1.784-4-4s1.784-4 4-4"/><path fill="#4fc3f7" d="M64 39.5c-5.588 0-10.575 2.554-13.977 6.506.524.183 1.089.291 1.471.709l3.654 3.986C57.251 48.15 60.407 46.5 64 46.5c4.608 0 8.555 2.653 10.393 6.535l.337.715H68c-.563 0-.954.318-1.143.746a1.21 1.21 0 0 0 .223 1.348l11 12q.084.09.191.168l.002.002.057.039h.002l.002.002.037.021h.002q.246.14.54.16h.001l.131.008c.323-.012.636-.14.875-.4l11-12c.38-.415.411-.92.223-1.348A1.21 1.21 0 0 0 90 53.75h-7.992l-.098-.375C79.842 45.424 72.577 39.5 64 39.5" overflow="visible"/><path fill="#2196f3" d="M49 47.75a1.25 1.25 0 0 0-.92.406l-11 12c-.38.415-.41.92-.223 1.348.189.428.58.745 1.143.746h7.992l.098.375C48.158 70.576 55.423 76.5 64 76.5c5.521 0 10.445-2.502 13.844-6.373-.493-.177-.961-.43-1.338-.84l-.131-.142v-.002l-3.523-3.844C70.749 67.85 67.593 69.5 64 69.5c-4.608 0-8.555-2.653-10.393-6.535l-.337-.715H60c.563 0 .954-.318 1.143-.746a1.21 1.21 0 0 0-.223-1.348l-11-12a1.25 1.25 0 0 0-.92-.406" overflow="visible"/></svg>