<svg xmlns="http://www.w3.org/2000/svg" xml:space="preserve" viewBox="0 0 128 128"><path fill="#607D8B" d="M20.955 28a6.35 6.35 0 0 0-6.363 6.365v59.802H8.17c-1.202 0-2.169.966-2.169 2.169v.75c0 1.314.841 6.387 6.384 6.387h99.432c1.202 0 2.239-.97 2.239-2.171l.01-66.937A6.35 6.35 0 0 0 107.702 28z"/><path fill="#90A4AE" d="M20.955 31.73c-1.524 0-2.634 1.11-2.634 2.635v59.802h92.005l.01-59.802c0-1.525-1.11-2.636-2.634-2.636z"/><path fill="#CFD8DC" d="M76.704 96.646v.57a2.61 2.61 0 0 1-2.617 2.616H50.202a2.61 2.61 0 0 1-2.616-2.617v-.57z"/><path fill="#ffcc80" d="M85.719 73.907a3.716 3.716 0 0 0-2.31 4.722l8.279 24.111-6.556-3.221a3.722 3.722 0 0 0-3.284 6.68l13.928 6.846q.31.152.632.243c.592.229 1.413.452 2.607.8 1.618.473 4.205.977 5.94.382l9.325-3.202c5.101-1.751 9.017-8.126 7.317-13.078l-4.595-13.388a3.722 3.722 0 0 0-7.042 2.417l-.624-1.819a3.722 3.722 0 0 0-7.041 2.417l-.636-1.851a3.722 3.722 0 1 0-7.041 2.416L90.44 76.215a3.716 3.716 0 0 0-4.722-2.31" overflow="visible"/></svg>