<svg xmlns="http://www.w3.org/2000/svg" xml:space="preserve" viewBox="0 0 128 128"><path fill="#1976D2" d="M20.955 28a6.35 6.35 0 0 0-6.363 6.365v59.802H8.17c-1.202 0-2.169.966-2.169 2.169v.75c0 1.314.841 6.387 6.384 6.387h99.432c1.202 0 2.239-.97 2.239-2.171l.01-66.937A6.35 6.35 0 0 0 107.702 28z"/><path fill="#2196F3" d="M20.955 31.73c-1.524 0-2.634 1.11-2.634 2.635v59.802h92.005l.01-59.802c0-1.525-1.11-2.636-2.634-2.636z"/><path fill="#64B5F6" d="M76.704 96.646v.57a2.61 2.61 0 0 1-2.617 2.616H50.202a2.61 2.61 0 0 1-2.616-2.617v-.57z"/><path fill="#90CAF9" d="M27.043 53.488c-.476.006-.727.244-.727.693 0 .474.274.68 1.013.762 2.014.222 4.934.984 6.265 1.634 1.907.932 2.449 1.973 1.813 3.48-1.059 2.509-1.019 4.14.142 5.853 1.617 2.386 5.68 4.39 10.654 5.254 2.622.456 3.431.509 7.82.508 4.158 0 5.047-.042 9.942-.452 5.674-.476 9.5-.34 11.5.407 2.298.858 3.586 2.003 4.306 3.9q.166.44.294.936.031.118.068.245a5.275 5.275 0 0 1 10.115-2.982c-.07-.24-.156-.505-.257-.825-.708-2.231-2.975-6.5-10.093-7.911-3.872-.768-8.406-.668-15.751.346-8.853 1.221-12.88 1.382-17.273.685-2.974-.471-5.524-1.497-6.629-2.665-.783-.827-.953-1.32-.86-2.478.122-1.527.085-2.336-.132-2.902-.852-2.224-4.082-3.613-9.864-4.243l-2.128-.233a2 2 0 0 0-.218-.012"/><path fill="#BBDEFB" d="M90.507 75.362a5.275 5.275 0 0 1-5.274 5.275 5.275 5.275 0 0 1-5.275-5.275 5.275 5.275 0 0 1 5.275-5.274 5.275 5.275 0 0 1 5.274 5.274"/><path fill="#ffcc80" d="M85.719 73.907a3.716 3.716 0 0 0-2.31 4.722l8.279 24.111-6.556-3.221a3.722 3.722 0 0 0-3.284 6.68l13.928 6.846q.31.152.632.243c.592.229 1.413.452 2.607.8 1.618.473 4.205.977 5.94.382l9.325-3.202c5.101-1.751 9.017-8.126 7.317-13.078l-4.595-13.388a3.722 3.722 0 0 0-7.042 2.417l-.624-1.819a3.722 3.722 0 0 0-7.041 2.417l-.636-1.851a3.722 3.722 0 1 0-7.041 2.416L90.44 76.215a3.716 3.716 0 0 0-4.722-2.31" overflow="visible"/></svg>