<svg xmlns="http://www.w3.org/2000/svg" viewBox="0 0 128 128"><path fill="#1976D2" d="M26 20h76a14 14 0 0 1 14 14v56a14 14 0 0 1-14 14H26a14 14 0 0 1-14-14V34a14 14 0 0 1 14-14z"/><path fill="#2196F3" d="M29 28h70a9 9 0 0 1 9 9v50a9 9 0 0 1-9 9H29a9 9 0 0 1-9-9V37a9 9 0 0 1 9-9z"/><path fill="#FFCC80" d="M64 64a4.49 4.49 0 0 0-2.79 5.705l10.001 29.13-7.92-3.892a4.497 4.497 0 0 0-3.968 8.072l16.827 8.27q.376.183.764.293c.715.277 1.707.547 3.15.968 1.954.57 5.08 1.179 7.176.46l11.266-3.868c6.163-2.116 10.894-9.817 8.84-15.8l-5.552-16.175a4.497 4.497 0 0 0-8.507 2.92l-.754-2.197a4.497 4.497 0 0 0-8.507 2.92l-.768-2.237a4.497 4.497 0 1 0-8.507 2.92l-5.046-14.7A4.49 4.49 0 0 0 64 63.999" overflow="visible"/><path fill="#90CAF9" d="M64.19 42.547a25.77 25.77 0 0 0-18.848 9.656A25.74 25.74 0 0 0 42.416 79.7a2.55 2.55 0 0 0 3.42 1.149 2.55 2.55 0 0 0 1.15-3.42 20.61 20.61 0 0 1 2.344-22.043 20.62 20.62 0 0 1 20.97-7.19 20.61 20.61 0 0 1 15.378 15.967 2.55 2.55 0 0 0 3.006 1.994 2.55 2.55 0 0 0 1.996-3.006 25.74 25.74 0 0 0-19.182-19.916 25.7 25.7 0 0 0-7.309-.687m.685 9.564a16 16 0 0 0-4.656.862c-8.205 2.814-12.736 11.687-10.205 19.984a2.55 2.55 0 0 0 3.183 1.695 2.55 2.55 0 0 0 1.698-3.183 11.01 11.01 0 0 1 6.98-13.67 11.01 11.01 0 0 1 13.9 6.506 2.55 2.55 0 0 0 3.293 1.472 2.55 2.55 0 0 0 1.475-3.293C78.028 55.9 71.598 51.88 64.875 52.111" overflow="visible"/></svg>