<svg xmlns="http://www.w3.org/2000/svg" viewBox="0 0 128 128"><path fill="#607D8B" d="M26 20h76a14 14 0 0 1 14 14v56a14 14 0 0 1-14 14H26a14 14 0 0 1-14-14V34a14 14 0 0 1 14-14z"/><path fill="#90A4AE" d="M29 28h70a9 9 0 0 1 9 9v50a9 9 0 0 1-9 9H29a9 9 0 0 1-9-9V37a9 9 0 0 1 9-9z"/><path fill="#FFCC80" d="M64 64a4.49 4.49 0 0 0-2.789 5.704l10 29.132-7.92-3.893a4.497 4.497 0 0 0-3.967 8.072l16.827 8.27q.375.183.764.292c.714.278 1.706.548 3.15.97 1.954.57 5.08 1.178 7.175.458l11.267-3.867c6.162-2.116 10.893-9.817 8.84-15.8l-5.553-16.175a4.497 4.497 0 0 0-8.506 2.92l-.755-2.197a4.497 4.497 0 0 0-8.507 2.92l-.768-2.237a4.497 4.497 0 1 0-8.506 2.92l-5.047-14.7a4.49 4.49 0 0 0-5.704-2.79" overflow="visible"/></svg>