<svg xmlns="http://www.w3.org/2000/svg" viewBox="0 0 540 600" font-family="Segoe UI, sans-serif">
<rect width="540" height="600" fill="#1C1C1E"/>
<g transform="translate(57,20) scale(2.75)" stroke-linecap="round" stroke-linejoin="round"><path d="M20.64,4.32 C12,4.8 3.84,11.04 4.8,19.2 C9.12,22.56 20.16,17.28 20.64,4.32 Z" fill="none" stroke="#34C759" stroke-width="2"/><path d="M18.24,6.72 C12.48,11.52 9.12,14.4 6.72,17.76" fill="none" stroke="#34C759" stroke-width="2"/></g>
<text x="90" y="128" fill="#EDEDED" font-size="13" text-anchor="middle">Тихий · mode-quiet</text>
<g transform="translate(237,20) scale(2.75)" stroke-linecap="round" stroke-linejoin="round"><path d="M4.462,19.285 A9.84,9.84 0 1 1 19.538,19.285" fill="none" stroke="#5AAAFF" stroke-width="2"/><line x1="12" y1="12.96" x2="15.542" y2="6.824" stroke="#5AAAFF" stroke-width="2"/><circle cx="12" cy="12.96" r="1.21" fill="#5AAAFF"/></g>
<text x="270" y="128" fill="#EDEDED" font-size="13" text-anchor="middle">Авто · mode-auto</text>
<g transform="translate(417,20) scale(2.75)" stroke-linecap="round" stroke-linejoin="round"><polygon points="14.4,1.92 6.72,13.2 11.28,13.2 9.6,22.08 17.28,10.8 12.72,10.8" fill="#FF9500"/></g>
<text x="450" y="128" fill="#EDEDED" font-size="13" text-anchor="middle">Турбо · mode-turbo</text>
<g transform="translate(57,170) scale(2.75)" stroke-linecap="round" stroke-linejoin="round"><polygon points="9.12,1.92 4.512,13.2 7.248,13.2 6.24,22.08 10.848,10.8 8.112,10.8" fill="#FF9500"/><polygon points="17.76,1.92 13.152,13.2 15.888,13.2 14.88,22.08 19.488,10.8 16.752,10.8" fill="#FF9500"/></g>
<text x="90" y="278" fill="#EDEDED" font-size="13" text-anchor="middle">Полная · mode-full</text>
<g transform="translate(237,170) scale(2.75)" stroke-linecap="round" stroke-linejoin="round"><rect x="3.12" y="1.92" width="17.76" height="8.64" rx="4.32" fill="none" stroke="#F0F0F0" stroke-width="1.44"/><circle cx="16.56" cy="6.24" r="2.592" fill="#F0F0F0"/><rect x="3.12" y="13.44" width="17.76" height="8.64" rx="4.32" fill="none" stroke="#F0F0F0" stroke-width="1.44"/><circle cx="7.44" cy="17.76" r="2.592" fill="#F0F0F0"/></g>
<text x="270" y="278" fill="#EDEDED" font-size="13" text-anchor="middle">База · app</text>
<g transform="translate(417,170) scale(2.75)" stroke-linecap="round" stroke-linejoin="round"><rect x="8.64" y="2.88" width="6.72" height="10.08" rx="3.36" fill="#34C759"/><path d="M17.413,13.432 A5.76,5.76 0 0 1 6.587,13.432" fill="none" stroke="#34C759" stroke-width="2"/><line x1="12" y1="16.07" x2="12" y2="21.12" stroke="#34C759" stroke-width="2"/><line x1="8.4" y1="21.12" x2="15.6" y2="21.12" stroke="#34C759" stroke-width="2"/></g>
<text x="450" y="278" fill="#EDEDED" font-size="13" text-anchor="middle">Микрофон · mic</text>
<g transform="translate(57,320) scale(2.75)" stroke-linecap="round" stroke-linejoin="round"><rect x="8.64" y="2.88" width="6.72" height="10.08" rx="3.36" fill="#969699"/><path d="M17.413,13.432 A5.76,5.76 0 0 1 6.587,13.432" fill="none" stroke="#969699" stroke-width="2"/><line x1="12" y1="16.07" x2="12" y2="21.12" stroke="#969699" stroke-width="2"/><line x1="8.4" y1="21.12" x2="15.6" y2="21.12" stroke="#969699" stroke-width="2"/><line x1="3.36" y1="3.36" x2="20.64" y2="20.64" stroke="#FF5A5A" stroke-width="1.4"/></g>
<text x="90" y="428" fill="#EDEDED" font-size="13" text-anchor="middle">Мик.выкл · mic-muted</text>
<g transform="translate(237,320) scale(2.75)" stroke-linecap="round" stroke-linejoin="round"><rect x="2.4" y="12.48" width="19.2" height="7.68" rx="0.461" fill="none" stroke="#5AAAFF" stroke-width="2"/><line x1="5.472" y1="15.245" x2="18.528" y2="15.245" stroke="#5AAAFF" stroke-width="2"/><line x1="8.16" y1="17.702" x2="15.84" y2="17.702" stroke="#5AAAFF" stroke-width="2"/><path d="M8.64,11.28 A3.36,3.36 0 0 1 15.36,11.28" fill="none" stroke="#5AAAFF" stroke-width="2"/><line x1="8.64" y1="11.28" x2="15.36" y2="11.28" stroke="#5AAAFF" stroke-width="2"/><line x1="7.432" y1="9.15" x2="4.996" y2="8.014" stroke="#5AAAFF" stroke-width="2"/><line x1="9.255" y1="7.053" x2="7.791" y2="4.799" stroke="#5AAAFF" stroke-width="2"/><line x1="11.912" y1="6.241" x2="11.865" y2="3.553" stroke="#5AAAFF" stroke-width="2"/><line x1="14.596" y1="6.96" x2="15.98" y2="4.656" stroke="#5AAAFF" stroke-width="2"/><line x1="16.491" y1="8.992" x2="18.886" y2="7.772" stroke="#5AAAFF" stroke-width="2"/></g>
<text x="270" y="428" fill="#EDEDED" font-size="13" text-anchor="middle">Подсветка · keyboard-light</text>
<g transform="translate(417,320) scale(2.75)" stroke-linecap="round" stroke-linejoin="round"><rect x="2.16" y="6.48" width="17.52" height="11.04" rx="1.766" fill="none" stroke="#EBEBEB" stroke-width="2"/><rect x="20.16" y="9.792" width="1.2" height="4.416" rx="0" fill="#EBEBEB"/><rect x="3.926" y="8.246" width="11.19" height="7.507" rx="1.06" fill="#34C759"/><polygon points="13.2,7.2 9.12,12.72 11.592,12.72 10.8,16.8 14.88,11.28 12.408,11.28" fill="#F0F0F0" stroke="#1C1C1E" stroke-width="1"/></g>
<text x="450" y="428" fill="#EDEDED" font-size="13" text-anchor="middle">Зарядка · battery-charging</text>
<g transform="translate(57,470) scale(2.75)" stroke-linecap="round" stroke-linejoin="round"><rect x="2.16" y="6.48" width="17.52" height="11.04" rx="1.766" fill="none" stroke="#EBEBEB" stroke-width="2"/><rect x="20.16" y="9.792" width="1.2" height="4.416" rx="0" fill="#EBEBEB"/><rect x="3.926" y="8.246" width="8.392" height="7.507" rx="1.06" fill="#E6BE46"/></g>
<text x="90" y="578" fill="#EDEDED" font-size="13" text-anchor="middle">От батареи · battery</text>
<g transform="translate(237,470) scale(2.75)" stroke-linecap="round" stroke-linejoin="round"><rect x="2.16" y="6.48" width="17.52" height="11.04" rx="1.766" fill="none" stroke="#EBEBEB" stroke-width="2"/><rect x="20.16" y="9.792" width="1.2" height="4.416" rx="0" fill="#EBEBEB"/><rect x="3.926" y="8.246" width="11.19" height="7.507" rx="1.06" fill="#34C759"/><path d="M9.84,14.64 C8.16,10.8 11.28,7.92 15.12,8.64 C13.92,12.72 11.592,14.64 9.84,14.64" fill="none" stroke="#1C1C1E" stroke-width="1.3"/><path d="M9.84,14.64 C8.16,10.8 11.28,7.92 15.12,8.64 C13.92,12.72 11.592,14.64 9.84,14.64" fill="none" stroke="#F0F0F0" stroke-width="0.9"/></g>
<text x="270" y="578" fill="#EDEDED" font-size="13" text-anchor="middle">Беречь вкл · battery-care</text>
<g transform="translate(417,470) scale(2.75)" stroke-linecap="round" stroke-linejoin="round"><rect x="2.16" y="6.48" width="17.52" height="11.04" rx="1.766" fill="none" stroke="#EBEBEB" stroke-width="2"/><rect x="20.16" y="9.792" width="1.2" height="4.416" rx="0" fill="#EBEBEB"/><rect x="3.926" y="8.246" width="13.288" height="7.507" rx="1.06" fill="#969699"/><line x1="4.32" y1="4.8" x2="19.68" y2="19.2" stroke="#FF5A5A" stroke-width="1.4"/></g>
<text x="450" y="578" fill="#EDEDED" font-size="13" text-anchor="middle">Беречь выкл · battery-off</text>
</svg>
