<svg xmlns="http://www.w3.org/2000/svg" viewBox="0 0 24 24">
  <g transform="rotate(38 12 12)" fill="none" stroke="currentColor" stroke-width="1.5" stroke-linejoin="round" stroke-linecap="round">
    <path d="M8.25 10.7 C6.6 12.2 5.6 14.8 5.8 17.1 C6.9 15.9 8.25 15.2 9 15"/>
    <path d="M15.75 10.7 C17.4 12.2 18.4 14.8 18.2 17.1 C17.1 15.9 15.75 15.2 15 15"/>
    <path d="M12 2.8 C14.4 4.7 15.75 8.1 15.75 11.6 L15.75 14.1 C15.75 15 15 15.6 14.25 15.6 L9.75 15.6 C9 15.6 8.25 15 8.25 14.1 L8.25 11.6 C8.25 8.1 9.6 4.7 12 2.8 Z"/>
    <circle cx="12" cy="9.6" r="1.9"/>
    <path d="M12 17.6 V20"/>
  </g>
</svg>
